<svg xmlns="http://www.w3.org/2000/svg" viewBox="0 0 1200 620" fill="none"><defs><linearGradient id="s" x1="0" y1="0" x2="1" y2="1"><stop stop-color="#dff7ff"/><stop offset=".5" stop-color="#f9e9df"/><stop offset="1" stop-color="#9bc4df"/></linearGradient><linearGradient id="m1" x1="0" y1="0" x2="0" y2="1"><stop stop-color="#a7c8d2"/><stop offset="1" stop-color="#557b86"/></linearGradient><linearGradient id="m2" x1="0" y1="0" x2="0" y2="1"><stop stop-color="#668d91"/><stop offset="1" stop-color="#27464b"/></linearGradient><linearGradient id="r" x1="0" y1="0" x2="0" y2="1"><stop stop-color="#756a5e"/><stop offset="1" stop-color="#302e2b"/></linearGradient><linearGradient id="roof" x1="0" y1="0" x2="1" y2="1"><stop stop-color="#403d3b"/><stop offset="1" stop-color="#15191a"/></linearGradient></defs><rect width="1200" height="620" fill="url(#s)"/><circle cx="960" cy="135" r="58" fill="#fff5d9" opacity=".9"/><path d="M0 470 150 305 265 420 410 230 560 425 710 260 860 430 1030 290 1200 430V620H0Z" fill="url(#m1)" opacity=".62"/><path d="M0 520 190 370 330 500 505 300 650 505 820 350 980 500 1130 360 1200 420V620H0Z" fill="url(#m2)" opacity=".9"/><path d="M565 620 675 340 745 215 815 340 885 620Z" fill="url(#r)"/><path d="M655 360 735 245 790 330 850 620H610Z" fill="#514b44" opacity=".8"/><g fill="url(#roof)" stroke="#111" stroke-width="3"><path d="M705 255h95l-12 13h-71z"/><path d="M716 230h73l-10 12h-53z"/><path d="M725 205h56l-8 12h-40z"/><path d="M716 255v38h12v-27h10v27h12v-27h10v27h12v-38z"/><path d="M687 310h126l-15 14H702z"/><path d="M700 286h100l-12 13H712z"/><path d="M707 310v43h13v-30h13v30h13v-30h13v30h13v-43z"/></g><g stroke="#e9c68b" stroke-width="4" stroke-linecap="round"><path d="M724 225h48"/><path d="M710 273h82"/><path d="M699 315h104"/></g><path d="M0 580c210-55 340-20 520-58 210-44 400-15 680-72v170H0Z" fill="#17363a" opacity=".72"/></svg>